<?xml version="1.0" encoding="UTF-8" ?>
<svg width="1000" height="1000" xmlns="http://www.w3.org/2000/svg" xmlns:xlink="http://www.w3.org/1999/xlink">
<path d="M399.405807,671.732819L416.389842,654.938988L446.132938,655.356803L465.487202,676.018766L462.173090,698.867288L428.862196,713.812138L403.598718,699.030011Z" fill="rgb(255, 255, 255)" stroke="black" stroke-width="1"/>
<path d="M474.231758,462.934848L478.958751,457.614653L526.243976,458.022702L535.726651,487.829969L514.252792,507.664472L480.914826,497.988411Z" fill="rgb(255, 255, 255)" stroke="black" stroke-width="1"/>
<path d="M316.971092,570.163458L328.693399,608.347096L301.173295,650.795848L297.280887,651.180866L274.592808,624.009243L295.721715,566.043007Z" fill="rgb(255, 255, 255)" stroke="black" stroke-width="1"/>
<path d="M329.054756,374.074004L305.760290,398.873115L290.636586,397.888568L273.546215,367.088830L291.035392,346.054361L325.540768,352.919386Z" fill="rgb(255, 255, 255)" stroke="black" stroke-width="1"/>
<path d="M723.089115,368.770688L750.000000,365.269584L750.000000,414.212639L719.794227,412.903155L715.961176,408.252936Z" fill="rgb(255, 255, 255)" stroke="black" stroke-width="1"/>
<path d="M270.751361,425.103316L250.000000,425.212215L250.000000,366.457231L273.546215,367.088830L290.636586,397.888568Z" fill="rgb(255, 255, 255)" stroke="black" stroke-width="1"/>
<path d="M634.298581,466.828478L635.956908,469.334985L612.754593,509.643140L571.057618,502.332620L566.483428,493.088892L586.313856,462.472637Z" fill="rgb(255, 255, 255)" stroke="black" stroke-width="1"/>
<path d="M365.096155,441.732259L356.863564,473.432099L333.722778,477.955075L324.210681,467.233588L334.199157,440.204401L358.894359,435.952157Z" fill="rgb(255, 255, 255)" stroke="black" stroke-width="1"/>
<path d="M411.790794,374.475871L384.239348,382.659980L377.975209,352.038643L412.704798,323.137020L426.742263,327.520025L430.042170,336.905059Z" fill="rgb(255, 255, 255)" stroke="black" stroke-width="1"/>
<path d="M592.786071,340.067389L552.381594,335.497862L549.397476,329.661529L560.905966,297.762242L594.647108,293.043782L608.445377,312.692889Z" fill="rgb(255, 255, 255)" stroke="black" stroke-width="1"/>
<path d="M274.592808,624.009243L297.280887,651.180866L278.033305,706.417665L250.000000,709.738911L250.000000,624.010277Z" fill="rgb(255, 255, 255)" stroke="black" stroke-width="1"/>
<path d="M579.589888,726.651134L536.018274,697.809360L572.976438,674.426728L604.799691,703.514200Z" fill="rgb(255, 255, 255)" stroke="black" stroke-width="1"/>
<path d="M299.887396,471.048413L270.751361,425.103316L290.636586,397.888568L305.760290,398.873115L334.199157,440.204401L324.210681,467.233588Z" fill="rgb(255, 255, 255)" stroke="black" stroke-width="1"/>
<path d="M278.033305,706.417665L294.790988,723.651449L293.201071,750.000000L250.000000,750.000000L250.000000,709.738911Z" fill="rgb(255, 255, 255)" stroke="black" stroke-width="1"/>
<path d="M544.678018,280.524819L544.945300,278.162094L576.282521,264.119725L598.013995,283.551305L594.647108,293.043782L560.905966,297.762242Z" fill="rgb(255, 255, 255)" stroke="black" stroke-width="1"/>
<path d="M404.864008,601.236298L418.653600,590.904135L454.295576,616.703980L446.132938,655.356803L416.389842,654.938988Z" fill="rgb(255, 255, 255)" stroke="black" stroke-width="1"/>
<path d="M495.534349,720.046239L462.173090,698.867288L465.487202,676.018766L498.661507,668.383653L531.100189,697.684907Z" fill="rgb(255, 255, 255)" stroke="black" stroke-width="1"/>
<path d="M652.311907,539.523067L671.762025,586.830400L632.726468,633.817561L610.530208,627.421547L596.841421,576.275845L624.833456,536.379539Z" fill="rgb(255, 255, 255)" stroke="black" stroke-width="1"/>
<path d="M649.089050,425.446705L650.388212,426.803941L634.298581,466.828478L586.313856,462.472637L579.201251,448.897999L590.966217,427.688172Z" fill="rgb(255, 255, 255)" stroke="black" stroke-width="1"/>
<path d="M646.578196,684.369044L692.264379,695.605716L694.707671,704.570068L671.608368,735.077485L631.198004,701.099400Z" fill="rgb(255, 255, 255)" stroke="black" stroke-width="1"/>
<path d="M412.704798,323.137020L377.975209,352.038643L335.276577,343.595632L331.985502,315.110062L378.669649,280.445027L407.234539,290.438660Z" fill="rgb(255, 255, 255)" stroke="black" stroke-width="1"/>
<path d="M446.132938,655.356803L454.295576,616.703980L479.091574,605.960683L508.295726,629.006820L498.661507,668.383653L465.487202,676.018766Z" fill="rgb(255, 255, 255)" stroke="black" stroke-width="1"/>
<path d="M495.534349,720.046239L531.100189,697.684907L536.018274,697.809360L579.589888,726.651134L579.447925,750.000000L493.930812,750.000000Z" fill="rgb(255, 255, 255)" stroke="black" stroke-width="1"/>
<path d="M650.388212,426.803941L673.640111,427.685413L683.917813,444.596538L667.512065,471.618601L635.956908,469.334985L634.298581,466.828478Z" fill="rgb(255, 255, 255)" stroke="black" stroke-width="1"/>
<path d="M372.539168,662.959011L361.689065,615.156591L379.784188,594.577316L404.864008,601.236298L416.389842,654.938988L399.405807,671.732819Z" fill="rgb(255, 255, 255)" stroke="black" stroke-width="1"/>
<path d="M531.100189,697.684907L498.661507,668.383653L508.295726,629.006820L533.673766,621.716254L574.590217,658.381354L572.976438,674.426728L536.018274,697.809360Z" fill="rgb(255, 255, 255)" stroke="black" stroke-width="1"/>
<path d="M596.841421,576.275845L610.530208,627.421547L574.590217,658.381354L533.673766,621.716254L555.855511,569.289759Z" fill="rgb(255, 255, 255)" stroke="black" stroke-width="1"/>
<path d="M707.293779,497.996180L722.643253,465.761500L750.000000,466.045256L750.000000,530.977223L724.819554,530.183150Z" fill="rgb(255, 255, 255)" stroke="black" stroke-width="1"/>
<path d="M508.295726,629.006820L479.091574,605.960683L482.147048,564.273566L520.108920,536.628941L544.629539,544.768025L555.855511,569.289759L533.673766,621.716254Z" fill="rgb(255, 255, 255)" stroke="black" stroke-width="1"/>
<path d="M337.057909,702.491018L358.580064,721.637405L358.678564,750.000000L293.201071,750.000000L294.790988,723.651449Z" fill="rgb(255, 255, 255)" stroke="black" stroke-width="1"/>
<path d="M698.585680,351.364815L690.202384,323.666488L694.535207,315.710921L750.000000,316.317403L750.000000,365.269584L723.089115,368.770688Z" fill="rgb(255, 255, 255)" stroke="black" stroke-width="1"/>
<path d="M632.726468,633.817561L671.762025,586.830400L689.821692,589.064030L718.299102,656.025745L692.264379,695.605716L646.578196,684.369044Z" fill="rgb(255, 255, 255)" stroke="black" stroke-width="1"/>
<path d="M482.987948,337.930950L496.390599,322.903678L549.397476,329.661529L552.381594,335.497862L539.476308,367.665180L485.520832,377.954835Z" fill="rgb(255, 255, 255)" stroke="black" stroke-width="1"/>
<path d="M574.590217,658.381354L610.530208,627.421547L632.726468,633.817561L646.578196,684.369044L631.198004,701.099400L604.799691,703.514200L572.976438,674.426728Z" fill="rgb(255, 255, 255)" stroke="black" stroke-width="1"/>
<path d="M467.057252,288.340696L435.871445,271.601297L434.655941,250.000000L516.960956,250.000000L516.980688,255.778943Z" fill="rgb(255, 255, 255)" stroke="black" stroke-width="1"/>
<path d="M407.234539,290.438660L378.669649,280.445027L377.415383,250.000000L434.655941,250.000000L435.871445,271.601297Z" fill="rgb(255, 255, 255)" stroke="black" stroke-width="1"/>
<path d="M358.894359,435.952157L334.199157,440.204401L305.760290,398.873115L329.054756,374.074004L366.294280,391.519437Z" fill="rgb(255, 255, 255)" stroke="black" stroke-width="1"/>
<path d="M544.629539,544.768025L520.108920,536.628941L514.252792,507.664472L535.726651,487.829969L566.483428,493.088892L571.057618,502.332620Z" fill="rgb(255, 255, 255)" stroke="black" stroke-width="1"/>
<path d="M495.305742,306.895662L496.390599,322.903678L482.987948,337.930950L430.042170,336.905059L426.742263,327.520025L467.456035,290.994092Z" fill="rgb(255, 255, 255)" stroke="black" stroke-width="1"/>
<path d="M358.580064,721.637405L337.057909,702.491018L337.845889,690.833566L372.539168,662.959011L399.405807,671.732819L403.598718,699.030011Z" fill="rgb(255, 255, 255)" stroke="black" stroke-width="1"/>
<path d="M641.158535,310.514326L638.156555,295.521834L673.867688,288.880527L694.535207,315.710921L690.202384,323.666488Z" fill="rgb(255, 255, 255)" stroke="black" stroke-width="1"/>
<path d="M689.821692,589.064030L724.819554,530.183150L750.000000,530.977223L750.000000,657.429473L718.299102,656.025745Z" fill="rgb(255, 255, 255)" stroke="black" stroke-width="1"/>
<path d="M331.985502,315.110062L303.575716,308.619212L297.981237,250.000000L377.415383,250.000000L378.669649,280.445027Z" fill="rgb(255, 255, 255)" stroke="black" stroke-width="1"/>
<path d="M450.169868,542.055570L451.501051,519.701838L480.914826,497.988411L514.252792,507.664472L520.108920,536.628941L482.147048,564.273566Z" fill="rgb(255, 255, 255)" stroke="black" stroke-width="1"/>
<path d="M294.790988,723.651449L278.033305,706.417665L297.280887,651.180866L301.173295,650.795848L337.845889,690.833566L337.057909,702.491018Z" fill="rgb(255, 255, 255)" stroke="black" stroke-width="1"/>
<path d="M395.856538,452.275849L383.716150,479.357607L367.328961,483.882081L356.863564,473.432099L365.096155,441.732259L386.280571,438.759497Z" fill="rgb(255, 255, 255)" stroke="black" stroke-width="1"/>
<path d="M405.285977,499.288355L388.561458,532.370420L384.407880,533.220752L361.182932,506.145956L367.328961,483.882081L383.716150,479.357607Z" fill="rgb(255, 255, 255)" stroke="black" stroke-width="1"/>
<path d="M671.762025,586.830400L652.311907,539.523067L680.756319,496.741457L707.293779,497.996180L724.819554,530.183150L689.821692,589.064030Z" fill="rgb(255, 255, 255)" stroke="black" stroke-width="1"/>
<path d="M576.282521,264.119725L544.945300,278.162094L516.980688,255.778943L516.960956,250.000000L577.878406,250.000000Z" fill="rgb(255, 255, 255)" stroke="black" stroke-width="1"/>
<path d="M573.404425,395.809740L590.966217,427.688172L579.201251,448.897999L533.894259,447.729522L528.512450,433.401625L555.247853,395.110851Z" fill="rgb(255, 255, 255)" stroke="black" stroke-width="1"/>
<path d="M327.259861,510.646579L302.293207,516.034006L288.909704,495.974516L299.887396,471.048413L324.210681,467.233588L333.722778,477.955075Z" fill="rgb(255, 255, 255)" stroke="black" stroke-width="1"/>
<path d="M421.183827,562.183896L418.653600,590.904135L404.864008,601.236298L379.784188,594.577316L369.933323,557.369353L384.407880,533.220752L388.561458,532.370420Z" fill="rgb(255, 255, 255)" stroke="black" stroke-width="1"/>
<path d="M637.858829,314.031825L608.445377,312.692889L594.647108,293.043782L598.013995,283.551305L615.852084,279.922824L638.156555,295.521834L641.158535,310.514326Z" fill="rgb(255, 255, 255)" stroke="black" stroke-width="1"/>
<path d="M419.263215,495.736729L451.501051,519.701838L450.169868,542.055570L421.183827,562.183896L388.561458,532.370420L405.285977,499.288355Z" fill="rgb(255, 255, 255)" stroke="black" stroke-width="1"/>
<path d="M544.678018,280.524819L560.905966,297.762242L549.397476,329.661529L496.390599,322.903678L495.305742,306.895662Z" fill="rgb(255, 255, 255)" stroke="black" stroke-width="1"/>
<path d="M688.079018,406.055852L715.961176,408.252936L719.794227,412.903155L708.681400,445.019421L683.917813,444.596538L673.640111,427.685413Z" fill="rgb(255, 255, 255)" stroke="black" stroke-width="1"/>
<path d="M291.035392,346.054361L273.546215,367.088830L250.000000,366.457231L250.000000,322.638025L285.479403,325.807424Z" fill="rgb(255, 255, 255)" stroke="black" stroke-width="1"/>
<path d="M335.455462,548.177278L369.933323,557.369353L379.784188,594.577316L361.689065,615.156591L328.693399,608.347096L316.971092,570.163458Z" fill="rgb(255, 255, 255)" stroke="black" stroke-width="1"/>
<path d="M289.684497,555.022696L295.721715,566.043007L274.592808,624.009243L250.000000,624.010277L250.000000,552.690907Z" fill="rgb(255, 255, 255)" stroke="black" stroke-width="1"/>
<path d="M426.066880,449.402877L435.293180,463.532165L419.263215,495.736729L405.285977,499.288355L383.716150,479.357607L395.856538,452.275849Z" fill="rgb(255, 255, 255)" stroke="black" stroke-width="1"/>
<path d="M544.945300,278.162094L544.678018,280.524819L495.305742,306.895662L467.456035,290.994092L467.057252,288.340696L516.980688,255.778943Z" fill="rgb(255, 255, 255)" stroke="black" stroke-width="1"/>
<path d="M403.598718,699.030011L428.862196,713.812138L429.512490,750.000000L358.678564,750.000000L358.580064,721.637405Z" fill="rgb(255, 255, 255)" stroke="black" stroke-width="1"/>
<path d="M592.786071,340.067389L600.009414,358.834941L573.404425,395.809740L555.247853,395.110851L539.476308,367.665180L552.381594,335.497862Z" fill="rgb(255, 255, 255)" stroke="black" stroke-width="1"/>
<path d="M289.684497,555.022696L302.293207,516.034006L327.259861,510.646579L334.278591,517.027113L335.455462,548.177278L316.971092,570.163458L295.721715,566.043007Z" fill="rgb(255, 255, 255)" stroke="black" stroke-width="1"/>
<path d="M302.293207,516.034006L289.684497,555.022696L250.000000,552.690907L250.000000,500.491448L288.909704,495.974516Z" fill="rgb(255, 255, 255)" stroke="black" stroke-width="1"/>
<path d="M750.000000,718.033884L750.000000,750.000000L671.813642,750.000000L671.608368,735.077485L694.707671,704.570068Z" fill="rgb(255, 255, 255)" stroke="black" stroke-width="1"/>
<path d="M652.306975,373.821842L649.089050,425.446705L590.966217,427.688172L573.404425,395.809740L600.009414,358.834941Z" fill="rgb(255, 255, 255)" stroke="black" stroke-width="1"/>
<path d="M698.585680,351.364815L670.564645,374.396895L656.947792,370.823186L637.858829,314.031825L641.158535,310.514326L690.202384,323.666488Z" fill="rgb(255, 255, 255)" stroke="black" stroke-width="1"/>
<path d="M399.012656,416.316509L386.280571,438.759497L365.096155,441.732259L358.894359,435.952157L366.294280,391.519437L383.736545,383.564717Z" fill="rgb(255, 255, 255)" stroke="black" stroke-width="1"/>
<path d="M474.231758,462.934848L480.914826,497.988411L451.501051,519.701838L419.263215,495.736729L435.293180,463.532165Z" fill="rgb(255, 255, 255)" stroke="black" stroke-width="1"/>
<path d="M624.833456,536.379539L596.841421,576.275845L555.855511,569.289759L544.629539,544.768025L571.057618,502.332620L612.754593,509.643140Z" fill="rgb(255, 255, 255)" stroke="black" stroke-width="1"/>
<path d="M604.799691,703.514200L631.198004,701.099400L671.608368,735.077485L671.813642,750.000000L579.447925,750.000000L579.589888,726.651134Z" fill="rgb(255, 255, 255)" stroke="black" stroke-width="1"/>
<path d="M454.295576,616.703980L418.653600,590.904135L421.183827,562.183896L450.169868,542.055570L482.147048,564.273566L479.091574,605.960683Z" fill="rgb(255, 255, 255)" stroke="black" stroke-width="1"/>
<path d="M615.852084,279.922824L613.578292,250.000000L680.469254,250.000000L673.867688,288.880527L638.156555,295.521834Z" fill="rgb(255, 255, 255)" stroke="black" stroke-width="1"/>
<path d="M673.867688,288.880527L680.469254,250.000000L750.000000,250.000000L750.000000,316.317403L694.535207,315.710921Z" fill="rgb(255, 255, 255)" stroke="black" stroke-width="1"/>
<path d="M427.893205,403.043239L423.367442,413.103246L399.012656,416.316509L383.736545,383.564717L384.239348,382.659980L411.790794,374.475871Z" fill="rgb(255, 255, 255)" stroke="black" stroke-width="1"/>
<path d="M586.313856,462.472637L566.483428,493.088892L535.726651,487.829969L526.243976,458.022702L533.894259,447.729522L579.201251,448.897999Z" fill="rgb(255, 255, 255)" stroke="black" stroke-width="1"/>
<path d="M615.852084,279.922824L598.013995,283.551305L576.282521,264.119725L577.878406,250.000000L613.578292,250.000000Z" fill="rgb(255, 255, 255)" stroke="black" stroke-width="1"/>
<path d="M485.520832,377.954835L476.118680,391.072128L427.893205,403.043239L411.790794,374.475871L430.042170,336.905059L482.987948,337.930950Z" fill="rgb(255, 255, 255)" stroke="black" stroke-width="1"/>
<path d="M367.328961,483.882081L361.182932,506.145956L334.278591,517.027113L327.259861,510.646579L333.722778,477.955075L356.863564,473.432099Z" fill="rgb(255, 255, 255)" stroke="black" stroke-width="1"/>
<path d="M637.858829,314.031825L656.947792,370.823186L652.306975,373.821842L600.009414,358.834941L592.786071,340.067389L608.445377,312.692889Z" fill="rgb(255, 255, 255)" stroke="black" stroke-width="1"/>
<path d="M528.512450,433.401625L533.894259,447.729522L526.243976,458.022702L478.958751,457.614653L475.079182,434.290726L479.811716,429.255552Z" fill="rgb(255, 255, 255)" stroke="black" stroke-width="1"/>
<path d="M688.079018,406.055852L673.640111,427.685413L650.388212,426.803941L649.089050,425.446705L652.306975,373.821842L656.947792,370.823186L670.564645,374.396895Z" fill="rgb(255, 255, 255)" stroke="black" stroke-width="1"/>
<path d="M434.265010,433.600984L475.079182,434.290726L478.958751,457.614653L474.231758,462.934848L435.293180,463.532165L426.066880,449.402877Z" fill="rgb(255, 255, 255)" stroke="black" stroke-width="1"/>
<path d="M723.089115,368.770688L715.961176,408.252936L688.079018,406.055852L670.564645,374.396895L698.585680,351.364815Z" fill="rgb(255, 255, 255)" stroke="black" stroke-width="1"/>
<path d="M386.280571,438.759497L399.012656,416.316509L423.367442,413.103246L434.265010,433.600984L426.066880,449.402877L395.856538,452.275849Z" fill="rgb(255, 255, 255)" stroke="black" stroke-width="1"/>
<path d="M285.479403,325.807424L250.000000,322.638025L250.000000,250.000000L297.981237,250.000000L303.575716,308.619212Z" fill="rgb(255, 255, 255)" stroke="black" stroke-width="1"/>
<path d="M692.264379,695.605716L718.299102,656.025745L750.000000,657.429473L750.000000,718.033884L694.707671,704.570068Z" fill="rgb(255, 255, 255)" stroke="black" stroke-width="1"/>
<path d="M467.057252,288.340696L467.456035,290.994092L426.742263,327.520025L412.704798,323.137020L407.234539,290.438660L435.871445,271.601297Z" fill="rgb(255, 255, 255)" stroke="black" stroke-width="1"/>
<path d="M667.512065,471.618601L683.917813,444.596538L708.681400,445.019421L722.643253,465.761500L707.293779,497.996180L680.756319,496.741457Z" fill="rgb(255, 255, 255)" stroke="black" stroke-width="1"/>
<path d="M423.367442,413.103246L427.893205,403.043239L476.118680,391.072128L479.811716,429.255552L475.079182,434.290726L434.265010,433.600984Z" fill="rgb(255, 255, 255)" stroke="black" stroke-width="1"/>
<path d="M750.000000,414.212639L750.000000,466.045256L722.643253,465.761500L708.681400,445.019421L719.794227,412.903155Z" fill="rgb(255, 255, 255)" stroke="black" stroke-width="1"/>
<path d="M337.845889,690.833566L301.173295,650.795848L328.693399,608.347096L361.689065,615.156591L372.539168,662.959011Z" fill="rgb(255, 255, 255)" stroke="black" stroke-width="1"/>
<path d="M493.930812,750.000000L429.512490,750.000000L428.862196,713.812138L462.173090,698.867288L495.534349,720.046239Z" fill="rgb(255, 255, 255)" stroke="black" stroke-width="1"/>
<path d="M476.118680,391.072128L485.520832,377.954835L539.476308,367.665180L555.247853,395.110851L528.512450,433.401625L479.811716,429.255552Z" fill="rgb(255, 255, 255)" stroke="black" stroke-width="1"/>
<path d="M384.407880,533.220752L369.933323,557.369353L335.455462,548.177278L334.278591,517.027113L361.182932,506.145956Z" fill="rgb(255, 255, 255)" stroke="black" stroke-width="1"/>
<path d="M384.239348,382.659980L383.736545,383.564717L366.294280,391.519437L329.054756,374.074004L325.540768,352.919386L335.276577,343.595632L377.975209,352.038643Z" fill="rgb(255, 255, 255)" stroke="black" stroke-width="1"/>
<path d="M624.833456,536.379539L612.754593,509.643140L635.956908,469.334985L667.512065,471.618601L680.756319,496.741457L652.311907,539.523067Z" fill="rgb(255, 255, 255)" stroke="black" stroke-width="1"/>
<path d="M335.276577,343.595632L325.540768,352.919386L291.035392,346.054361L285.479403,325.807424L303.575716,308.619212L331.985502,315.110062Z" fill="rgb(255, 255, 255)" stroke="black" stroke-width="1"/>
<path d="M299.887396,471.048413L288.909704,495.974516L250.000000,500.491448L250.000000,425.212215L270.751361,425.103316Z" fill="rgb(255, 255, 255)" stroke="black" stroke-width="1"/>
</svg>
